<?xml version="1.0" standalone="no"?>
<!DOCTYPE svg PUBLIC "-//W3C//DTD SVG 20010904//EN"
 "http://www.w3.org/TR/2001/REC-SVG-20010904/DTD/svg10.dtd">
<svg version="1.0" xmlns="http://www.w3.org/2000/svg"
 width="840.000000pt" height="666.000000pt" viewBox="0 0 840.000000 666.000000"
 preserveAspectRatio="xMidYMid meet">

<g transform="translate(0.000000,666.000000) scale(0.100000,-0.100000)"
fill="#000000" stroke="none">
<path d="M5639 5978 c-246 -330 -451 -720 -628 -1203 -29 -77 -55 -148 -59
-157 -6 -15 -16 -13 -97 21 -50 21 -140 54 -200 75 l-110 37 -59 107 c-32 59
-95 169 -140 246 l-81 139 -185 -6 c-223 -7 -394 -28 -554 -68 -115 -29 -302
-93 -320 -109 -5 -5 21 -72 57 -152 37 -79 68 -149 69 -155 2 -8 -56 -33 -157
-67 -88 -30 -212 -77 -275 -104 l-115 -49 -12 -139 c-7 -76 -19 -239 -28 -362
l-15 -223 -112 -227 c-61 -125 -113 -231 -115 -235 -3 -4 40 15 96 42 55 28
103 51 107 51 3 0 4 -53 2 -117 -5 -117 -6 -122 -127 -516 -66 -219 -121 -400
-121 -403 0 -3 -5 -4 -11 -2 -6 2 -13 33 -15 68 -6 82 -38 241 -69 345 -42
137 -129 302 -234 445 -73 97 -88 114 -59 65 88 -152 115 -201 157 -290 27
-55 65 -143 84 -196 42 -111 119 -378 115 -396 -2 -7 -92 200 -201 459 l-198
472 27 60 c16 36 27 79 28 110 1 51 1 51 -39 64 -36 12 -63 44 -265 307 -123
161 -226 298 -228 304 -4 12 -102 15 -102 4 0 -5 37 -213 81 -463 56 -310 81
-476 80 -521 l-2 -67 34 -6 c18 -3 54 -2 80 3 l46 8 283 -450 c279 -444 283
-451 289 -514 6 -71 25 -104 80 -141 41 -28 105 -26 148 5 34 25 71 98 71 140
0 41 50 243 60 243 4 0 10 -64 14 -142 11 -230 78 -833 106 -958 l7 -35 23 55
c34 80 187 381 209 409 18 23 18 22 25 -104 3 -69 11 -160 17 -201 7 -52 7
-85 -1 -111 -53 -185 -73 -409 -47 -530 24 -111 70 -198 143 -269 110 -109
256 -163 440 -164 202 0 386 82 545 243 177 178 322 487 336 715 3 51 9 89 13
85 4 -4 17 -45 30 -91 13 -46 27 -79 31 -75 27 28 419 921 547 1248 l20 50 7
-89 c4 -50 5 -135 2 -189 -6 -121 9 -183 54 -221 58 -49 116 -27 154 59 16 34
150 206 395 506 205 250 380 462 390 472 16 18 19 17 65 -7 81 -43 145 -31
202 39 l30 36 44 -20 44 -20 12 22 c6 13 83 182 171 377 88 195 176 391 196
434 20 44 33 83 29 86 -5 4 -70 53 -145 110 l-137 102 -25 -18 c-13 -11 -145
-152 -291 -314 -147 -162 -278 -306 -291 -320 l-24 -26 25 -36 24 -35 -25 -24
c-30 -28 -47 -90 -40 -143 l5 -41 -68 -44 c-71 -45 -180 -143 -246 -221 l-37
-45 5 571 5 571 -81 60 c-165 120 -334 222 -529 320 l-77 39 193 449 c106 248
218 502 248 565 53 112 178 340 202 370 18 21 58 90 54 90 -3 0 -29 -33 -59
-72z m-1800 -1204 c47 -33 64 -123 39 -208 -8 -26 -31 -60 -65 -93 -46 -48
-56 -53 -95 -53 -78 0 -118 50 -118 147 0 89 46 173 115 211 30 17 97 14 124
-4z m-460 -561 c1 -283 -9 -573 -34 -952 -8 -124 -15 -227 -15 -230 0 -4 107
-7 238 -7 140 -1 284 -8 352 -17 63 -8 118 -11 121 -8 3 3 11 65 18 136 32
345 83 613 171 892 87 278 217 613 238 613 5 0 71 -18 147 -41 161 -47 333
-110 496 -181 l117 -50 -80 -167 c-241 -502 -489 -1099 -630 -1511 -97 -287
-209 -673 -289 -1000 -73 -297 -69 -284 -79 -274 -4 5 -36 108 -69 229 -34
121 -64 226 -67 234 -3 8 -5 205 -4 438 l0 423 -22 5 c-135 31 -626 58 -678
37 -24 -9 -30 -32 -119 -413 l-95 -404 -81 -125 c-45 -69 -101 -158 -125 -198
-23 -40 -44 -71 -46 -70 -5 5 -23 196 -39 403 -52 698 -56 1428 -10 1995 18
213 43 465 50 497 8 36 195 121 415 188 l105 33 6 -102 c4 -55 7 -223 8 -373z
m2021 64 c-2 -79 -67 -252 -491 -1319 -87 -219 -161 -408 -164 -421 -6 -22 1
-27 71 -61 42 -20 78 -35 80 -34 4 5 141 311 191 428 25 58 49 109 54 115 8 8
16 -176 10 -250 -5 -51 -486 -1293 -497 -1282 -3 2 11 125 31 273 20 148 37
280 38 293 2 21 -6 26 -85 51 -63 20 -90 24 -96 16 -5 -6 -82 -141 -172 -301
-89 -159 -167 -294 -171 -300 -5 -5 -3 11 5 35 8 25 38 119 66 210 272 878
525 1520 896 2278 l153 313 40 -21 c23 -11 41 -21 41 -23z m-3668 -432 c177
-301 162 -268 130 -292 -15 -11 -52 -43 -83 -71 l-56 -51 -68 312 c-37 172
-70 321 -73 332 -9 37 13 3 150 -230z m4236 -617 c-201 -265 -562 -734 -571
-743 -13 -13 -13 -13 73 130 94 156 213 330 293 430 60 74 248 265 262 265 3
0 -22 -37 -57 -82z m-435 -110 c73 -61 131 -116 129 -121 -1 -5 -24 -41 -51
-80 -61 -91 -149 -243 -207 -358 -24 -49 -47 -89 -50 -89 -3 0 -3 30 0 68 3
37 10 180 16 317 11 264 18 375 27 375 2 0 64 -50 136 -112z m-2835 -344 c-2
-1 -22 2 -44 8 l-42 11 34 101 c19 56 37 108 42 116 4 8 8 -41 10 -109 1 -68
1 -125 0 -127z m2619 194 c9 -7 13 -43 13 -114 l0 -104 -46 0 c-25 0 -54 -5
-65 -11 -19 -10 -20 -7 -17 108 3 114 4 118 28 130 26 14 65 9 87 -9z m-1727
-728 c19 -6 83 -11 142 -12 l106 -1 -4 -75 c-4 -81 -8 -92 -26 -74 -7 7 -20
12 -30 12 -19 0 -41 33 -30 45 4 5 1 5 -6 1 -7 -4 -10 -12 -7 -17 4 -5 -5 -9
-19 -9 -14 0 -27 4 -30 8 -2 4 -24 9 -48 10 -24 1 -65 7 -92 13 -36 9 -62 9
-100 0 -28 -6 -69 -12 -92 -13 -40 -3 -41 -3 -37 27 1 16 6 37 10 45 3 8 5 23
4 33 -2 15 9 17 111 17 62 0 129 -5 148 -10z m510 -927 c6 -27 15 -40 23 -37
7 2 17 -8 23 -25 7 -16 23 -36 37 -46 24 -16 28 -15 86 14 33 17 63 31 65 31
10 0 -7 -64 -27 -107 -33 -73 -118 -133 -188 -133 -50 0 -103 60 -119 135 -18
88 -2 195 41 265 l22 35 13 -45 c7 -25 17 -64 24 -87z"/>
<path d="M3556 2227 c3 -10 9 -15 12 -12 3 3 0 11 -7 18 -10 9 -11 8 -5 -6z"/>
</g>
</svg>
